<svg width="1440" height="1024" viewBox="0 0 1440 1024" fill="none" xmlns="http://www.w3.org/2000/svg">
<rect width="1440" height="1024" fill="#E5E5E5"/>
<mask id="mask0" mask-type="alpha" maskUnits="userSpaceOnUse" x="0" y="0" width="1440" height="1024">
<g clip-path="url(#clip0)">
<rect width="1440" height="1024" fill="white"/>
<path d="M227.12 458.143C223.418 459.443 219.443 459.769 215.578 459.089C211.714 458.408 208.09 456.745 205.055 454.258C197.327 447.776 194.904 437.096 192.933 427.208L187.102 397.959L199.31 406.36C208.09 412.401 217.067 418.636 223.146 427.387C229.225 436.138 231.878 448.084 226.994 457.552" fill="#E6E6E6"/>
<path d="M226.076 493.555C227.312 484.56 228.582 475.449 227.716 466.358C226.946 458.284 224.481 450.398 219.463 443.932C216.799 440.506 213.558 437.571 209.885 435.258C208.928 434.654 208.046 436.171 209 436.772C215.355 440.786 220.27 446.713 223.037 453.699C226.094 461.468 226.584 469.936 226.058 478.189C225.739 483.179 225.064 488.137 224.384 493.089C224.33 493.312 224.364 493.548 224.478 493.749C224.591 493.949 224.777 494.098 224.997 494.167C225.221 494.228 225.46 494.197 225.662 494.083C225.864 493.968 226.013 493.778 226.076 493.555V493.555Z" fill="#F2F2F2"/>
<path d="M214.174 477.638C212.587 480.049 210.404 482.012 207.837 483.336C205.271 484.66 202.406 485.301 199.519 485.197C192.1 484.845 185.916 479.67 180.348 474.758L163.88 460.227L174.779 459.706C182.617 459.331 190.657 458.981 198.122 461.397C205.588 463.813 212.472 469.626 213.838 477.348" fill="#E6E6E6"/>
<path d="M229.568 498.725C223.621 488.208 216.722 476.52 204.396 472.784C200.968 471.749 197.375 471.378 193.808 471.692C192.684 471.789 192.965 473.52 194.087 473.424C200.065 472.928 206.032 474.505 210.983 477.891C215.747 481.132 219.457 485.637 222.596 490.415C224.52 493.342 226.242 496.393 227.965 499.44C228.516 500.413 230.125 499.71 229.568 498.725V498.725Z" fill="#F2F2F2"/>
<path d="M388.976 288.043L259.313 395.441C257.681 396.79 255.581 397.436 253.473 397.239C251.366 397.042 249.422 396.017 248.069 394.39L193.41 328.481C192.061 326.851 191.414 324.752 191.611 322.645C191.809 320.539 192.834 318.597 194.462 317.245L324.126 209.846C325.758 208.498 327.858 207.852 329.966 208.049C332.073 208.246 334.017 209.271 335.37 210.898L390.029 276.806C391.378 278.437 392.025 280.536 391.828 282.642C391.63 284.749 390.605 286.691 388.976 288.043Z" fill="#CCCCCC"/>
<path d="M383.78 284.809L257.097 389.738C256.257 390.433 255.175 390.766 254.089 390.664C253.003 390.563 252.002 390.035 251.305 389.197L199.116 326.267C198.421 325.427 198.088 324.346 198.19 323.261C198.291 322.176 198.82 321.175 199.659 320.479L326.342 215.549C327.182 214.854 328.264 214.521 329.35 214.623C330.436 214.725 331.437 215.253 332.134 216.091L384.323 279.02C385.018 279.86 385.351 280.941 385.249 282.027C385.148 283.112 384.619 284.112 383.78 284.809Z" fill="white"/>
<path d="M389.62 306.774L363.565 304.336L382.213 289.668L392.259 301.782C392.651 302.244 392.894 302.814 392.956 303.416C393.019 304.019 392.898 304.626 392.609 305.159C392.419 305.521 392.16 305.841 391.846 306.103C391.538 306.356 391.183 306.546 390.801 306.661C390.419 306.776 390.018 306.815 389.62 306.774V306.774Z" fill="#CCCCCC"/>
<path d="M337.296 260.133L273.21 313.215C272.818 313.539 272.367 313.783 271.881 313.933C271.395 314.083 270.884 314.135 270.378 314.088C269.872 314.041 269.38 313.894 268.931 313.657C268.481 313.42 268.083 313.096 267.758 312.705C267.434 312.314 267.19 311.862 267.04 311.377C266.89 310.891 266.837 310.381 266.884 309.875C266.932 309.369 267.078 308.878 267.316 308.429C267.553 307.979 267.877 307.581 268.269 307.257L332.355 254.175C332.747 253.851 333.198 253.607 333.684 253.457C334.17 253.307 334.68 253.254 335.187 253.302C335.693 253.349 336.185 253.496 336.634 253.733C337.084 253.97 337.482 254.294 337.807 254.685C338.131 255.076 338.375 255.527 338.525 256.013C338.675 256.498 338.728 257.009 338.68 257.514C338.633 258.02 338.486 258.512 338.249 258.961C338.011 259.41 337.688 259.809 337.296 260.133V260.133Z" fill="#CCCCCC"/>
<path d="M305.931 264.755L262.71 300.554C261.919 301.209 260.901 301.523 259.879 301.428C258.856 301.332 257.914 300.835 257.259 300.044C256.603 299.254 256.289 298.237 256.385 297.215C256.48 296.193 256.978 295.251 257.769 294.597L300.99 258.797C301.781 258.142 302.799 257.828 303.822 257.924C304.844 258.019 305.786 258.517 306.441 259.307C307.097 260.097 307.411 261.115 307.315 262.137C307.22 263.158 306.722 264.1 305.931 264.755Z" fill="#CCCCCC"/>
<path d="M238.96 337.97C245.642 337.97 251.059 332.557 251.059 325.879C251.059 319.202 245.642 313.789 238.96 313.789C232.278 313.789 226.862 319.202 226.862 325.879C226.862 332.557 232.278 337.97 238.96 337.97Z" fill="#88D9F3"/>
<path d="M335.197 301.643C337.336 301.643 339.069 299.911 339.069 297.774C339.069 295.638 337.336 293.905 335.197 293.905C333.059 293.905 331.326 295.638 331.326 297.774C331.326 299.911 333.059 301.643 335.197 301.643Z" fill="#E6E6E6"/>
<path d="M345.63 293.002C347.768 293.002 349.502 291.27 349.502 289.133C349.502 286.996 347.768 285.264 345.63 285.264C343.492 285.264 341.759 286.996 341.759 289.133C341.759 291.27 343.492 293.002 345.63 293.002Z" fill="#E6E6E6"/>
<path d="M356.063 284.361C358.201 284.361 359.934 282.629 359.934 280.492C359.934 278.355 358.201 276.623 356.063 276.623C353.925 276.623 352.191 278.355 352.191 280.492C352.191 282.629 353.925 284.361 356.063 284.361Z" fill="#E6E6E6"/>
<path d="M294.356 491.988L303.245 491.987L307.473 457.726L294.355 457.727L294.356 491.988Z" fill="#FFB8B8"/>
<path d="M292.089 489.088L309.593 489.087H309.594C311.059 489.087 312.509 489.376 313.863 489.936C315.216 490.496 316.446 491.317 317.481 492.352C318.517 493.387 319.339 494.616 319.9 495.969C320.46 497.321 320.749 498.771 320.749 500.235V500.597L292.09 500.598L292.089 489.088Z" fill="#2F2E41"/>
<path d="M262.457 491.988L271.346 491.987L275.574 457.726L262.456 457.727L262.457 491.988Z" fill="#FFB8B8"/>
<path d="M260.191 489.088L277.694 489.087H277.695C279.16 489.087 280.61 489.376 281.964 489.936C283.317 490.496 284.547 491.317 285.583 492.352C286.618 493.387 287.44 494.616 288.001 495.969C288.561 497.321 288.85 498.771 288.85 500.235V500.597L260.191 500.598L260.191 489.088Z" fill="#2F2E41"/>
<path d="M271.377 481.505H271.375L263.817 481.503C262.972 481.506 262.158 481.179 261.55 480.592C260.941 480.005 260.586 479.205 260.559 478.36L260.32 471.751C258.41 418.905 256.434 364.259 268.67 339.697L268.766 339.504L309.278 338.039L317.411 412.6C317.758 415.78 317.631 418.994 317.034 422.137L306.282 478.758C306.137 479.525 305.72 480.215 305.109 480.702C304.497 481.188 303.731 481.439 302.949 481.408L294.46 481.133C294.015 481.115 293.579 481.007 293.178 480.815C292.776 480.622 292.419 480.35 292.127 480.015C291.835 479.679 291.614 479.288 291.479 478.864C291.344 478.44 291.297 477.994 291.341 477.551L298.01 425.183C298.237 422.923 298.032 420.64 297.405 418.457L289.111 389.48C289.042 389.241 288.893 389.032 288.689 388.889C288.485 388.746 288.238 388.678 287.989 388.695C287.74 388.712 287.505 388.815 287.323 388.985C287.141 389.155 287.022 389.383 286.988 389.63L274.608 478.693C274.497 479.471 274.109 480.184 273.516 480.7C272.923 481.216 272.164 481.502 271.377 481.505V481.505Z" fill="#2F2E41"/>
<path d="M276.222 263.495C286.056 263.495 294.028 255.527 294.028 245.7C294.028 235.872 286.056 227.905 276.222 227.905C266.387 227.905 258.415 235.872 258.415 245.7C258.415 255.527 266.387 263.495 276.222 263.495Z" fill="#FFB8B8"/>
<path d="M307.379 343.543H270.533C270.065 343.543 269.602 343.442 269.176 343.247C268.751 343.053 268.372 342.769 268.065 342.415C267.759 342.061 267.533 341.645 267.401 341.196C267.27 340.746 267.237 340.274 267.305 339.811L269.125 327.352L258.436 297.97C257.333 294.937 256.923 291.695 257.236 288.483C257.55 285.271 258.579 282.169 260.248 279.406C261.917 276.643 264.184 274.289 266.882 272.516C269.581 270.742 272.642 269.595 275.842 269.158V269.158C280.401 268.523 285.044 269.363 289.091 271.555C293.138 273.748 296.376 277.177 298.331 281.342L300.679 286.334L310.586 339.688C310.674 340.158 310.656 340.642 310.536 341.105C310.415 341.568 310.193 341.999 309.887 342.367C309.581 342.735 309.198 343.031 308.764 343.234C308.33 343.437 307.858 343.543 307.379 343.543H307.379Z" fill="#88D9F3"/>
<path d="M229.599 374.796C230.708 374.538 231.747 374.041 232.643 373.339C233.539 372.637 234.27 371.747 234.784 370.732C235.299 369.717 235.585 368.601 235.621 367.464C235.658 366.327 235.444 365.195 234.996 364.149L263.707 299.325L247.283 295.191L224.225 360.211C222.517 361.08 221.187 362.545 220.488 364.329C219.788 366.113 219.768 368.091 220.43 369.888C221.092 371.686 222.392 373.179 224.081 374.083C225.771 374.987 227.734 375.241 229.599 374.796H229.599Z" fill="#FFB8B8"/>
<path d="M259.82 310.918L243.846 303.446C243.392 303.233 242.989 302.925 242.664 302.543C242.339 302.16 242.101 301.713 241.965 301.23C241.829 300.747 241.799 300.241 241.877 299.745C241.954 299.25 242.138 298.777 242.415 298.359L252.123 283.707C253.225 281.391 255.202 279.606 257.619 278.743C260.036 277.88 262.696 278.01 265.018 279.105C267.339 280.199 269.132 282.168 270.003 284.581C270.874 286.993 270.753 289.653 269.666 291.976L264.646 308.758C264.502 309.239 264.256 309.682 263.925 310.059C263.594 310.436 263.186 310.737 262.728 310.943C262.27 311.148 261.773 311.251 261.271 311.247C260.769 311.243 260.274 311.131 259.82 310.918H259.82Z" fill="#88D9F3"/>
<path d="M349.365 207.983C349.712 209.067 349.817 210.214 349.672 211.342C349.527 212.471 349.137 213.554 348.528 214.516C347.919 215.477 347.107 216.294 346.148 216.907C345.189 217.521 344.108 217.918 342.979 218.068L301.968 275.91L290.004 263.929L334.079 210.84C333.951 208.928 334.529 207.036 335.704 205.523C336.878 204.009 338.568 202.978 340.452 202.626C342.337 202.274 344.285 202.625 345.927 203.612C347.57 204.6 348.793 206.155 349.365 207.983V207.983Z" fill="#FFB8B8"/>
<path d="M311.452 269.121C311.51 269.619 311.461 270.124 311.306 270.601C311.152 271.078 310.896 271.516 310.557 271.885L298.704 284.789C297.264 286.913 295.041 288.381 292.52 288.869C289.999 289.358 287.388 288.828 285.258 287.395C283.128 285.962 281.653 283.744 281.157 281.226C280.662 278.709 281.185 276.097 282.613 273.965L290.234 258.128C290.452 257.677 290.764 257.277 291.15 256.956C291.536 256.636 291.987 256.403 292.471 256.272C292.956 256.141 293.463 256.116 293.958 256.199C294.453 256.282 294.924 256.471 295.339 256.752L309.942 266.637C310.358 266.918 310.708 267.285 310.968 267.714C311.229 268.143 311.394 268.622 311.452 269.121V269.121Z" fill="#88D9F3"/>
<path d="M299.617 238.251C299.606 236.641 299.382 235.039 298.952 233.487C296.083 222.892 285.492 216.534 274.864 218.13C272.797 217.537 270.658 217.238 268.507 217.24V217.24C263.037 217.24 257.748 219.195 253.593 222.751C249.439 226.308 246.694 231.231 245.855 236.633L237.27 291.865H283.668L291.16 243.666C291.438 241.875 291.504 240.058 291.355 238.251H299.617Z" fill="#2F2E41"/>
<path d="M357.286 501H204.316C204.124 501 203.939 500.924 203.804 500.788C203.668 500.652 203.591 500.468 203.591 500.276C203.591 500.083 203.668 499.899 203.804 499.763C203.939 499.627 204.124 499.551 204.316 499.551H357.286C357.478 499.551 357.662 499.627 357.798 499.763C357.934 499.899 358.011 500.083 358.011 500.276C358.011 500.468 357.934 500.652 357.798 500.788C357.662 500.924 357.478 501 357.286 501Z" fill="#CCCCCC"/>
<path d="M511.393 145.272C512.454 145.17 513.525 145.301 514.529 145.657C515.534 146.014 516.448 146.585 517.207 147.333C517.966 148.08 518.552 148.985 518.924 149.983C519.296 150.981 519.444 152.049 519.358 153.11L543.07 163.54L531.759 170.836L510.976 159.814C509.201 159.551 507.584 158.648 506.431 157.273C505.278 155.899 504.67 154.15 504.722 152.358C504.773 150.565 505.481 148.854 506.71 147.548C507.94 146.242 509.606 145.432 511.393 145.272V145.272Z" fill="#A0616A"/>
<path d="M607.04 132.262C616.874 132.262 624.846 124.295 624.846 114.467C624.846 104.639 616.874 96.6717 607.04 96.6717C597.206 96.6717 589.234 104.639 589.234 114.467C589.234 124.295 597.206 132.262 607.04 132.262Z" fill="#A0616A"/>
<path d="M574.814 368.204L565.926 368.203L561.698 333.942L574.815 333.943L574.814 368.204Z" fill="#A0616A"/>
<path d="M577.081 376.814L548.422 376.813V376.45C548.422 374.986 548.71 373.537 549.271 372.184C549.832 370.832 550.653 369.603 551.689 368.568C552.725 367.533 553.955 366.711 555.308 366.151C556.661 365.591 558.112 365.303 559.577 365.303H559.577L577.081 365.304L577.081 376.814Z" fill="#2F2E41"/>
<path d="M611.788 368.204L602.899 368.203L598.671 333.942L611.789 333.943L611.788 368.204Z" fill="#A0616A"/>
<path d="M614.054 376.814L585.396 376.813V376.45C585.395 374.986 585.684 373.537 586.245 372.184C586.805 370.832 587.627 369.603 588.663 368.568C589.698 367.533 590.928 366.711 592.282 366.151C593.635 365.591 595.085 365.303 596.55 365.303H596.551L614.055 365.304L614.054 376.814Z" fill="#2F2E41"/>
<path d="M611.366 360.906C611.233 360.906 611.1 360.898 610.968 360.882L597.958 359.281C597.196 359.188 596.491 358.83 595.968 358.268C595.445 357.707 595.137 356.979 595.098 356.213L591.307 270.89C591.294 270.648 591.201 270.418 591.042 270.235C590.882 270.052 590.666 269.927 590.428 269.881C590.19 269.835 589.943 269.87 589.727 269.98C589.511 270.09 589.338 270.27 589.236 270.489L579.496 302.936L577.49 355.056C577.473 355.505 577.363 355.946 577.167 356.351C576.971 356.756 576.693 357.116 576.351 357.408C576.009 357.7 575.61 357.919 575.18 358.049C574.749 358.18 574.296 358.22 573.849 358.168L562.583 356.842C561.777 356.75 561.035 356.36 560.502 355.749C559.969 355.139 559.684 354.351 559.702 353.541L560.659 304.481L568.292 227.47L568.633 227.483L615.047 229.271L614.629 357.657C614.626 358.52 614.281 359.346 613.669 359.955C613.058 360.564 612.23 360.906 611.366 360.906H611.366Z" fill="#2F2E41"/>
<path d="M613.288 236.308C613.26 236.308 613.232 236.308 613.203 236.307L566.458 235.083C565.999 235.071 565.549 234.963 565.136 234.765C564.722 234.568 564.355 234.285 564.058 233.936C563.761 233.587 563.541 233.18 563.412 232.74C563.283 232.301 563.249 231.839 563.311 231.385L572.293 165.315C572.854 160.854 574.35 156.561 576.684 152.717C579.017 148.873 582.136 145.564 585.836 143.006C589.09 140.767 592.787 139.25 596.677 138.556C600.567 137.863 604.56 138.01 608.388 138.987C624.705 143.119 634.493 160.628 630.208 178.018L616.457 233.828C616.279 234.534 615.871 235.161 615.298 235.61C614.724 236.059 614.017 236.305 613.288 236.308V236.308Z" fill="#3F3D56"/>
<path d="M551.963 183.843C548.882 183.846 545.868 182.951 543.289 181.267L516.028 163.393C515.629 163.132 515.293 162.786 515.042 162.38C514.791 161.974 514.633 161.519 514.577 161.045C514.522 160.571 514.572 160.091 514.722 159.639C514.873 159.186 515.121 158.772 515.449 158.426L519.556 154.093C520.004 153.618 520.584 153.289 521.222 153.148C521.86 153.008 522.525 153.063 523.131 153.305L553.581 165.423L581.789 145.292C583.108 144.351 584.608 143.693 586.195 143.361C587.781 143.029 589.419 143.03 591.005 143.363C592.591 143.697 594.091 144.355 595.409 145.298C596.727 146.24 597.835 147.446 598.663 148.838C599.491 150.231 600.021 151.78 600.219 153.387C600.417 154.995 600.279 156.626 599.813 158.178C599.348 159.729 598.566 161.167 597.515 162.401C596.465 163.635 595.17 164.637 593.712 165.345L558.85 182.268C556.703 183.307 554.348 183.845 551.963 183.843V183.843Z" fill="#3F3D56"/>
<path d="M613.21 131.484C616.248 132.201 619.913 132.751 622.084 130.51C622.468 130.087 622.812 129.628 623.11 129.14L625.949 124.81C628.123 121.492 630.336 118.088 631.256 114.23C631.785 112.014 631.867 109.714 631.499 107.465C631.131 105.216 630.32 103.063 629.112 101.13C627.904 99.197 626.324 97.5233 624.464 96.2059C622.603 94.8885 620.499 93.9537 618.274 93.4558C614.036 92.5075 609.889 90.8759 605.556 91.1736C601.224 91.4712 596.143 91.3735 592.507 89C592.733 90.0581 593.958 94.7334 593.958 94.7334C593.958 94.7334 588.491 99.7461 587.395 100.996C588.83 100.36 590.392 100.062 591.961 100.123C593.529 100.185 595.063 100.605 596.444 101.352C597.825 102.099 599.016 103.152 599.926 104.43C600.836 105.709 601.441 107.179 601.693 108.728C602.004 110.63 601.821 112.74 602.952 114.301C604.028 115.787 605.957 116.307 607.579 117.164C609.916 118.495 611.701 120.617 612.611 123.147C613.522 125.677 613.497 128.449 612.543 130.963L613.21 131.484Z" fill="#2F2E41"/>
<path d="M591.831 242.681H444.234C442.379 242.679 440.6 241.942 439.288 240.631C437.976 239.319 437.238 237.542 437.236 235.688V160.664C437.238 158.81 437.976 157.032 439.288 155.721C440.6 154.41 442.379 153.672 444.234 153.67H591.831C593.687 153.672 595.465 154.41 596.777 155.721C598.089 157.032 598.827 158.81 598.829 160.664V235.688C598.827 237.542 598.089 239.319 596.777 240.631C595.465 241.942 593.687 242.679 591.831 242.681V242.681Z" fill="#CCCCCC"/>
<path d="M590.135 237.595H445.931C444.975 237.594 444.059 237.214 443.383 236.539C442.707 235.863 442.327 234.947 442.326 233.992V162.359C442.327 161.404 442.707 160.488 443.383 159.813C444.059 159.137 444.975 158.757 445.931 158.756H590.135C591.091 158.757 592.007 159.137 592.683 159.813C593.359 160.488 593.739 161.404 593.74 162.359V233.992C593.739 234.947 593.359 235.863 592.683 236.539C592.007 237.214 591.091 237.594 590.135 237.595V237.595Z" fill="white"/>
<path d="M581.783 255.681L565.565 239.473L586.358 239.998V253.787C586.363 254.318 586.208 254.838 585.913 255.28C585.618 255.721 585.196 256.063 584.703 256.261C584.373 256.399 584.019 256.471 583.661 256.472C583.311 256.471 582.965 256.4 582.643 256.264C582.321 256.129 582.028 255.93 581.783 255.681V255.681Z" fill="#CCCCCC"/>
<path d="M572.577 194.963H499.627C498.727 194.963 497.864 194.606 497.228 193.97C496.591 193.334 496.234 192.472 496.234 191.572C496.234 190.673 496.591 189.811 497.228 189.175C497.864 188.539 498.727 188.182 499.627 188.182H572.577C573.477 188.182 574.34 188.539 574.976 189.175C575.613 189.811 575.97 190.673 575.97 191.572C575.97 192.472 575.613 193.334 574.976 193.97C574.34 194.606 573.477 194.963 572.577 194.963V194.963Z" fill="#CCCCCC"/>
<path d="M548.826 180.552H499.627C499.181 180.553 498.739 180.465 498.327 180.295C497.915 180.125 497.54 179.876 497.224 179.561C496.909 179.246 496.658 178.872 496.487 178.46C496.317 178.048 496.229 177.607 496.229 177.161C496.229 176.715 496.317 176.274 496.487 175.862C496.658 175.451 496.909 175.077 497.224 174.762C497.54 174.447 497.915 174.197 498.327 174.027C498.739 173.857 499.181 173.77 499.627 173.77H548.826C549.726 173.77 550.589 174.127 551.225 174.763C551.861 175.399 552.219 176.262 552.219 177.161C552.219 178.06 551.861 178.923 551.225 179.559C550.589 180.195 549.726 180.552 548.826 180.552Z" fill="#CCCCCC"/>
<path d="M469.429 194.963C475.285 194.963 480.032 190.219 480.032 184.367C480.032 178.514 475.285 173.77 469.429 173.77C463.573 173.77 458.825 178.514 458.825 184.367C458.825 190.219 463.573 194.963 469.429 194.963Z" fill="#88D9F3"/>
<path d="M550.096 222.581C551.97 222.581 553.489 221.063 553.489 219.19C553.489 217.317 551.97 215.799 550.096 215.799C548.222 215.799 546.703 217.317 546.703 219.19C546.703 221.063 548.222 222.581 550.096 222.581Z" fill="#E6E6E6"/>
<path d="M561.972 222.581C563.846 222.581 565.365 221.063 565.365 219.19C565.365 217.317 563.846 215.799 561.972 215.799C560.098 215.799 558.579 217.317 558.579 219.19C558.579 221.063 560.098 222.581 561.972 222.581Z" fill="#E6E6E6"/>
<path d="M573.847 222.581C575.721 222.581 577.24 221.063 577.24 219.19C577.24 217.317 575.721 215.799 573.847 215.799C571.973 215.799 570.454 217.317 570.454 219.19C570.454 221.063 571.973 222.581 573.847 222.581Z" fill="#E6E6E6"/>
<path d="M589.546 233.759C589.663 232.701 590.011 231.681 590.565 230.771C591.12 229.861 591.867 229.084 592.754 228.494C593.642 227.904 594.648 227.516 595.702 227.357C596.755 227.197 597.831 227.271 598.854 227.572L613.921 206.511L618.753 219.068L603.704 237.143C603.084 238.826 601.867 240.223 600.286 241.069C598.704 241.916 596.866 242.153 595.121 241.736C593.376 241.319 591.844 240.276 590.817 238.806C589.789 237.336 589.337 235.54 589.546 233.759H589.546Z" fill="#A0616A"/>
<path d="M606.805 232.623C606.568 232.643 606.33 232.637 606.094 232.605C605.621 232.542 605.168 232.375 604.766 232.117C604.365 231.859 604.025 231.516 603.771 231.113L600.586 226.064C600.236 225.513 600.061 224.869 600.082 224.216C600.104 223.564 600.322 222.933 600.708 222.406L619.994 195.923L607.459 163.626C606.339 160.785 606.381 157.617 607.577 154.807C608.772 151.996 611.024 149.767 613.848 148.6V148.6C615.444 147.931 617.168 147.624 618.897 147.701C620.626 147.778 622.316 148.236 623.846 149.044C625.377 149.851 626.709 150.988 627.747 152.371C628.785 153.755 629.504 155.351 629.851 157.045L637.628 194.991C638.169 197.667 638.01 200.437 637.165 203.033C636.32 205.63 634.819 207.964 632.807 209.81L608.73 231.782C608.2 232.267 607.523 232.563 606.805 232.623V232.623Z" fill="#3F3D56"/>
<path d="M647.275 378.556H494.306C494.113 378.556 493.929 378.48 493.793 378.344C493.657 378.208 493.581 378.024 493.581 377.832C493.581 377.64 493.657 377.455 493.793 377.319C493.929 377.184 494.113 377.107 494.306 377.107H647.275C647.467 377.107 647.652 377.184 647.788 377.319C647.924 377.455 648 377.64 648 377.832C648 378.024 647.924 378.208 647.788 378.344C647.652 378.48 647.467 378.556 647.275 378.556Z" fill="#CCCCCC"/>
<path d="M146.041 198.24H-1.55603C-3.41142 198.238 -5.19022 197.501 -6.50218 196.19C-7.81414 194.878 -8.55211 193.101 -8.5542 191.247V116.223C-8.55211 114.369 -7.81414 112.591 -6.50218 111.28C-5.19022 109.969 -3.41142 109.231 -1.55603 109.229H146.041C147.896 109.231 149.675 109.969 150.987 111.28C152.299 112.591 153.037 114.369 153.039 116.223V191.247C153.037 193.101 152.299 194.878 150.987 196.19C149.675 197.501 147.896 198.238 146.041 198.24V198.24Z" fill="#CCCCCC"/>
<path d="M144.344 193.154H0.1405C-0.815304 193.153 -1.73166 192.773 -2.40752 192.098C-3.08337 191.422 -3.46353 190.506 -3.4646 189.551V117.918C-3.46353 116.963 -3.08337 116.047 -2.40752 115.372C-1.73166 114.696 -0.815304 114.316 0.1405 114.315H144.344C145.3 114.316 146.217 114.696 146.892 115.372C147.568 116.047 147.948 116.963 147.95 117.918V189.551C147.948 190.506 147.568 191.422 146.892 192.098C146.217 192.773 145.3 193.153 144.344 193.154Z" fill="white"/>
<path d="M135.993 211.24L119.775 195.032L140.568 195.557V209.346C140.573 209.877 140.418 210.397 140.123 210.839C139.828 211.28 139.406 211.622 138.913 211.82C138.583 211.958 138.229 212.03 137.871 212.031C137.521 212.03 137.175 211.959 136.853 211.823C136.53 211.688 136.238 211.489 135.993 211.24V211.24Z" fill="#CCCCCC"/>
<path d="M126.787 150.522H53.8365C52.9366 150.522 52.0736 150.165 51.4373 149.529C50.801 148.893 50.4435 148.031 50.4435 147.131C50.4435 146.232 50.801 145.37 51.4373 144.734C52.0736 144.098 52.9366 143.741 53.8365 143.741H126.787C127.687 143.741 128.55 144.098 129.186 144.734C129.822 145.37 130.18 146.232 130.18 147.131C130.18 148.031 129.822 148.893 129.186 149.529C128.55 150.165 127.687 150.522 126.787 150.522V150.522Z" fill="#CCCCCC"/>
<path d="M103.036 136.111H53.8365C52.9366 136.111 52.0736 135.754 51.4373 135.118C50.801 134.482 50.4435 133.619 50.4435 132.72C50.4435 131.821 50.801 130.958 51.4373 130.322C52.0736 129.686 52.9366 129.329 53.8365 129.329H103.036C103.935 129.329 104.798 129.686 105.435 130.322C106.071 130.958 106.429 131.821 106.429 132.72C106.429 133.619 106.071 134.482 105.435 135.118C104.798 135.754 103.935 136.111 103.036 136.111V136.111Z" fill="#CCCCCC"/>
<path d="M23.6383 150.522C29.4943 150.522 34.2415 145.778 34.2415 139.926C34.2415 134.073 29.4943 129.329 23.6383 129.329C17.7823 129.329 13.035 134.073 13.035 139.926C13.035 145.778 17.7823 150.522 23.6383 150.522Z" fill="#88D9F3"/>
<path d="M104.306 178.14C106.18 178.14 107.699 176.622 107.699 174.749C107.699 172.877 106.18 171.358 104.306 171.358C102.432 171.358 100.913 172.877 100.913 174.749C100.913 176.622 102.432 178.14 104.306 178.14Z" fill="#E6E6E6"/>
<path d="M116.181 178.14C118.055 178.14 119.574 176.622 119.574 174.749C119.574 172.877 118.055 171.358 116.181 171.358C114.307 171.358 112.788 172.877 112.788 174.749C112.788 176.622 114.307 178.14 116.181 178.14Z" fill="#E6E6E6"/>
<path d="M128.057 178.14C129.931 178.14 131.45 176.622 131.45 174.749C131.45 172.877 129.931 171.358 128.057 171.358C126.183 171.358 124.664 172.877 124.664 174.749C124.664 176.622 126.183 178.14 128.057 178.14Z" fill="#E6E6E6"/>
<path d="M139.92 102.021C138.917 102.381 138.006 102.958 137.25 103.708C136.494 104.459 135.912 105.367 135.545 106.367C135.178 107.367 135.035 108.435 135.126 109.496C135.216 110.557 135.539 111.586 136.07 112.509L119.091 132.064L132.437 133.831L146.515 114.99C148.007 113.995 149.083 112.487 149.538 110.753C149.992 109.018 149.794 107.177 148.981 105.578C148.169 103.979 146.797 102.734 145.127 102.079C143.457 101.423 141.604 101.402 139.92 102.021V102.021Z" fill="#FFB8B8"/>
<path d="M26.5511 109.849C26.9133 110.851 27.0513 111.92 26.9553 112.981C26.8594 114.042 26.5319 115.069 25.9959 115.989C25.46 116.91 24.7285 117.702 23.8531 118.309C22.9778 118.917 21.9797 119.325 20.9294 119.506L16.7042 145.05L6.82458 135.91L12.3515 113.054C12.1653 111.271 12.6402 109.481 13.6862 108.024C14.7322 106.567 16.2767 105.544 18.027 105.149C19.7772 104.754 21.6117 105.014 23.1828 105.88C24.7538 106.747 25.9523 108.159 26.5511 109.849V109.849Z" fill="#FFB8B8"/>
<path d="M53.0859 368.204L61.9741 368.203L66.2021 333.942L53.0845 333.943L53.0859 368.204Z" fill="#FFB8B8"/>
<path d="M50.8186 365.303L68.3222 365.303H68.3229C69.7878 365.303 71.2383 365.591 72.5917 366.151C73.9451 366.711 75.1748 367.533 76.2106 368.568C77.2464 369.603 78.0681 370.832 78.6286 372.184C79.1892 373.537 79.4778 374.986 79.4777 376.45V376.813L50.8191 376.814L50.8186 365.303Z" fill="#2F2E41"/>
<path d="M7.41258 368.204L16.3008 368.203L20.5288 333.942L7.41113 333.943L7.41258 368.204Z" fill="#FFB8B8"/>
<path d="M5.14526 365.303L22.6489 365.303H22.6496C24.1145 365.303 25.565 365.591 26.9184 366.151C28.2717 366.711 29.5014 367.533 30.5373 368.568C31.5731 369.603 32.3947 370.832 32.9553 372.184C33.5159 373.537 33.8044 374.986 33.8044 376.45V376.813L5.14581 376.814L5.14526 365.303Z" fill="#2F2E41"/>
<path d="M51.2304 134.288C61.0645 134.288 69.0365 126.321 69.0365 116.493C69.0365 106.666 61.0645 98.6985 51.2304 98.6985C41.3964 98.6985 33.4243 106.666 33.4243 116.493C33.4243 126.321 41.3964 134.288 51.2304 134.288Z" fill="#FFB8B8"/>
<path d="M49.0961 356.822L47.6238 263.065C47.6201 262.8 47.5195 262.545 47.3411 262.349C47.1627 262.153 46.9187 262.029 46.655 262C46.3914 261.971 46.1263 262.039 45.9096 262.192C45.6929 262.345 45.5396 262.572 45.4785 262.83L21.3434 354.537C21.1618 355.271 20.7336 355.92 20.1304 356.376C19.5272 356.832 18.7856 357.068 18.0295 357.043L4.76976 356.476C4.31898 356.457 3.87711 356.344 3.47209 356.145C3.06706 355.947 2.70768 355.666 2.41663 355.322C2.12558 354.977 1.90919 354.576 1.78114 354.143C1.65309 353.711 1.61616 353.257 1.67267 352.81L22.1523 234.961L22.1942 234.628L79.2367 237.325L79.6088 237.342L67.3767 357.018C67.3125 357.837 66.9423 358.603 66.3396 359.162C65.737 359.721 64.9459 360.033 64.1235 360.036H52.3581C51.5019 360.033 50.681 359.695 50.0714 359.094C49.4617 358.493 49.1116 357.678 49.0961 356.822V356.822Z" fill="#2F2E41"/>
<path d="M94.1494 245.267L11.3735 238.478C10.8739 238.437 10.3904 238.282 9.96067 238.024C9.5309 237.766 9.1664 237.413 8.89547 236.991C8.62455 236.57 8.45448 236.091 8.39847 235.594C8.34247 235.096 8.40204 234.592 8.57256 234.121L21.6081 198.103L22.3582 155.355C22.3854 153.803 22.7207 152.272 23.3446 150.85C23.9684 149.429 24.8685 148.146 25.9925 147.075C27.1165 146.004 28.4422 145.166 29.8925 144.611C31.3428 144.056 32.889 143.795 34.4414 143.842L39.9461 138.855H60.1145L61.8707 141.156L75.9041 143.311C78.4038 143.705 80.7102 144.892 82.483 146.697C84.2558 148.502 85.401 150.828 85.7493 153.333L97.6493 241.583C97.7113 242.043 97.6741 242.512 97.5403 242.957C97.4064 243.401 97.179 243.813 96.8733 244.162C96.5676 244.512 96.1906 244.793 95.7675 244.985C95.3445 245.178 94.8852 245.278 94.4204 245.279C94.3305 245.279 94.24 245.275 94.1494 245.267Z" fill="#2F2E41"/>
<path d="M78.0216 147.455L113.316 137.121L129.289 116.104C129.729 115.525 130.35 115.11 131.053 114.924C131.756 114.738 132.501 114.792 133.169 115.078L143.142 119.338C143.568 119.52 143.949 119.79 144.262 120.13C144.575 120.47 144.812 120.873 144.957 121.312C145.103 121.75 145.153 122.215 145.105 122.674C145.057 123.134 144.911 123.578 144.679 123.977L132.742 144.449C130.798 147.798 127.839 150.443 124.293 152.001L82.78 170.34L78.0216 147.455Z" fill="#2F2E41"/>
<path d="M10.308 162.914C8.19876 161.395 6.51674 159.359 5.42418 157.002C4.33162 154.645 3.86539 152.046 4.07046 149.456L5.61935 128.946C5.68323 128.127 6.05346 127.362 6.65634 126.803C7.25923 126.245 8.05053 125.934 8.8727 125.932H8.90155L20.5967 126.036C21.0758 126.04 21.5481 126.15 21.98 126.357C22.4118 126.564 22.7927 126.864 23.0955 127.235C23.3984 127.606 23.6157 128.04 23.7322 128.504C23.8486 128.969 23.8612 129.453 23.7692 129.923L21.5992 140.987L37.0848 147.526L24.0446 172.88L10.308 162.914Z" fill="#2F2E41"/>
<path d="M61.589 95.1556C61.589 95.1556 42.9681 85.1354 32.8185 96.9614C22.6688 108.787 36.6854 127.281 36.6854 127.281L56.657 129.798C56.657 129.798 57.382 116.23 62.1371 116.494C66.8922 116.757 81.66 99.6368 61.589 95.1556Z" fill="#2F2E41"/>
<path d="M113.694 377.832H-39.275C-39.4673 377.832 -39.6517 377.755 -39.7877 377.62C-39.9236 377.484 -40 377.299 -40 377.107C-40 376.915 -39.9236 376.731 -39.7877 376.595C-39.6517 376.459 -39.4673 376.383 -39.275 376.383H113.694C113.887 376.383 114.071 376.459 114.207 376.595C114.343 376.731 114.419 376.915 114.419 377.107C114.419 377.299 114.343 377.484 114.207 377.62C114.071 377.755 113.887 377.832 113.694 377.832Z" fill="#CCCCCC"/>
</g>
</mask>
<g mask="url(#mask0)">
<path d="M1489 -74H-119V1098H1489V-74Z" fill="url(#paint0_angular)"/>
<g filter="url(#filter0_i)">
<path d="M908 -181L577.766 1145H-140V-181H908Z" fill="#C3F7EB"/>
</g>
</g>
<path d="M1149.44 660.108L1146.28 668.731L1131.66 708.498C1126.18 712.37 1119.26 714.858 1111.5 714.858C1110.58 714.858 1109.48 714.634 1108.54 714.578C1100.42 714.017 1092.64 710.463 1087.25 705.936L1091.61 657.976L1091.93 654.496C1115.48 663.625 1142.95 662.091 1149.44 660.108Z" fill="#A0505A"/>
<path d="M1131.96 708.442L1127.49 755.262C1126.69 767.607 1117.22 777.053 1106 777.053C1105.49 777.053 1104.99 777.035 1104.46 776.997C1092.56 776.099 1083.6 764.895 1084.44 751.988L1087.16 710.612L1087.44 706.179C1089.83 708.424 1092.62 710.35 1095.71 711.847C1099.58 713.717 1103.9 714.933 1108.52 715.289C1109.46 715.363 1110.37 715.401 1111.29 715.401C1113.95 715.401 1116.55 715.101 1119.02 714.54C1119.09 714.522 1119.19 714.503 1119.26 714.484C1123.88 713.399 1128.11 711.398 1131.63 708.686C1131.76 708.611 1131.87 708.536 1131.96 708.442Z" fill="white" stroke="#323846" stroke-width="5" stroke-miterlimit="10"/>
<path d="M1127.68 711.286L1124.52 748.752C1123.84 759.19 1115.84 767.177 1106.33 767.177C1105.9 767.177 1105.47 767.158 1105.04 767.121C1094.99 766.354 1087.4 756.889 1088.11 745.965L1090.6 708.686" stroke="#323846" stroke-width="5" stroke-miterlimit="10"/>
<path d="M1119.22 714.073C1116.75 714.578 1113.97 714.671 1111.31 714.671C1110.39 714.671 1109.48 714.634 1108.54 714.578C1103.92 714.26 1099.58 713.138 1095.72 711.417L1094.49 705.356C1093.7 702.775 1095.67 700.175 1098.38 700.268L1116.34 700.792C1118.62 700.848 1120.36 702.831 1120.16 705.094L1119.22 714.073Z" fill="#323846"/>
<path d="M1119.04 713.886L1116.77 742.336C1116.38 747.854 1111.14 751.932 1106.2 751.034L1105.81 750.997C1098.77 749.706 1093.39 742.374 1094.3 734.517L1095.72 711.398C1099.6 713.119 1103.92 714.241 1108.54 714.559C1109.48 714.634 1110.39 714.653 1111.31 714.653C1113.97 714.671 1116.57 714.391 1119.04 713.886Z" fill="#323846"/>
<path d="M1116.29 744.712L1095.8 740.036C1093.72 739.568 1093.87 736.556 1096 736.295L1115.59 733.994C1117.93 733.713 1118.25 730.44 1116 729.729L1097.24 723.781C1094.38 722.864 1094.6 718.749 1097.56 718.15L1119.05 714.428C1119.05 714.428 1103 715.831 1095.74 711.828" stroke="white" stroke-width="5" stroke-miterlimit="10" stroke-linecap="round" stroke-linejoin="round"/>
<path d="M1188.09 554.891L1149.44 660.108C1142.95 662.091 1112.32 664.71 1082.42 650.849L1105.94 542.078C1108.13 525.617 1122.16 513.309 1138.79 513.309H1156.08C1177.8 513.291 1193.67 533.866 1188.09 554.891Z" fill="#88D9F3"/>
<path d="M1153.93 648.885C1147.44 650.868 1114.19 653.299 1084.29 639.439" stroke="white" stroke-width="6" stroke-miterlimit="10" stroke-linecap="round"/>
<path d="M1200.98 662.184L1197.09 669.087L1172.19 712.651C1162.59 716.448 1151.27 717.851 1141.13 715.719L1139.86 715.363C1134.85 714.316 1129.72 711.51 1126.09 708.368L1144.26 659.827C1144.26 659.827 1144.28 659.827 1144.29 659.827C1150.56 661.904 1172.11 667.74 1200.98 662.184Z" fill="#A0505A"/>
<path d="M1254.27 571.576L1211.14 660.164C1174.64 669.292 1150.5 661.904 1144.27 659.846L1189.4 539.179C1192.49 531.865 1197.61 525.823 1203.96 521.615C1210.3 517.406 1217.86 515.03 1225.79 515.03C1255.84 515.03 1268.78 545.258 1254.27 571.576Z" fill="#88D9F3"/>
<path d="M1215.99 650.625C1179.49 659.753 1154.6 652.364 1148.37 650.306" stroke="white" stroke-width="6" stroke-miterlimit="10" stroke-linecap="round"/>
<path d="M1189.4 539.179L1123.08 717.926" stroke="white" stroke-width="6" stroke-miterlimit="10"/>
<path d="M1171.81 712.782L1170.36 716.617L1153.82 759.882C1149.08 774.715 1133.52 783.525 1119.84 780.14L1119.09 779.896C1109.49 777.521 1103.4 765.961 1107.16 755.748L1126.05 709.583L1126.45 708.629C1128.82 710.762 1131.59 712.52 1134.68 713.792C1136.32 714.465 1138.06 715.008 1139.88 715.401L1141.15 715.756C1146.52 716.878 1152.06 717.084 1157.52 716.448C1162.42 715.85 1167.25 714.615 1171.81 712.782Z" fill="white" stroke="#323846" stroke-width="5" stroke-miterlimit="10"/>
<path d="M1166.46 714.783L1151.96 753.092C1148 765.512 1134.96 772.901 1123.51 770.058L1122.89 769.852C1114.85 767.85 1109.74 758.18 1112.88 749.613L1128.9 710.743" stroke="#323846" stroke-width="5" stroke-miterlimit="10" stroke-linecap="round"/>
<path d="M1160.91 710.65L1157.5 716.411C1152.06 717.047 1146.52 716.841 1141.13 715.719L1139.86 715.363C1138.04 714.989 1136.3 714.447 1134.66 713.755L1136.01 704.402C1136.32 702.157 1138.49 700.642 1140.72 701.11L1158.31 704.795C1160.96 705.337 1162.29 708.33 1160.91 710.65Z" fill="#323846"/>
<path d="M1157.5 716.411L1157.41 716.56L1148.62 739.792C1146.2 747.33 1138.31 751.801 1131.35 750.08L1130.97 749.949C1126.09 748.733 1122.98 742.86 1124.91 737.679L1134.62 714.11L1134.68 713.755C1136.32 714.428 1138.06 714.971 1139.88 715.363L1141.15 715.719C1146.52 716.86 1152.06 717.047 1157.5 716.411Z" fill="#323846"/>
<path d="M1124.35 741.812L1144.56 744.001C1147.04 744.263 1148.09 740.896 1145.88 739.717L1130.15 731.319C1128 730.178 1128.9 726.923 1131.33 727.035L1151.2 727.933C1153.87 728.064 1154.85 724.473 1152.49 723.219L1134.66 713.717C1134.66 713.717 1143.84 718.038 1157.45 716.355" stroke="white" stroke-width="5" stroke-miterlimit="10" stroke-linecap="round" stroke-linejoin="round"/>
<path d="M1076.92 518.865C1153.12 518.865 1214.88 457.11 1214.88 380.932C1214.88 304.754 1153.12 243 1076.92 243C1000.73 243 938.961 304.754 938.961 380.932C938.961 457.11 1000.73 518.865 1076.92 518.865Z" fill="#C4C4C4"/>
<path d="M1030.71 518.883C973.03 499.58 931.459 445.11 931.459 380.932" stroke="#323846" stroke-width="7" stroke-miterlimit="10"/>
<path d="M1076.92 470.025C1126.14 470.025 1166.03 430.137 1166.03 380.932C1166.03 331.728 1126.14 291.839 1076.92 291.839C1027.71 291.839 987.811 331.728 987.811 380.932C987.811 430.137 1027.71 470.025 1076.92 470.025Z" stroke="white" stroke-width="10" stroke-miterlimit="10" stroke-linecap="round" stroke-dasharray="30.03 30.03"/>
<path d="M1076.92 291.858V306.691" stroke="white" stroke-width="15" stroke-miterlimit="10" stroke-linecap="round"/>
<path d="M1076.92 455.173V470.025" stroke="white" stroke-width="15" stroke-miterlimit="10" stroke-linecap="round"/>
<path d="M1013.91 317.933L1024.41 328.446" stroke="white" stroke-width="15" stroke-miterlimit="10" stroke-linecap="round"/>
<path d="M1129.42 433.438L1139.92 443.932" stroke="white" stroke-width="15" stroke-miterlimit="10" stroke-linecap="round"/>
<path d="M987.811 380.932H1002.67" stroke="white" stroke-width="15" stroke-miterlimit="10" stroke-linecap="round"/>
<path d="M1151.18 380.932H1166.01" stroke="white" stroke-width="15" stroke-miterlimit="10" stroke-linecap="round"/>
<path d="M1013.91 443.932L1024.41 433.438" stroke="white" stroke-width="15" stroke-miterlimit="10" stroke-linecap="round"/>
<path d="M1129.42 328.446L1139.92 317.933" stroke="white" stroke-width="15" stroke-miterlimit="10" stroke-linecap="round"/>
<path d="M1076.92 475.637C1064.14 475.637 1051.74 473.131 1040.05 468.192C1028.76 463.423 1018.64 456.595 1009.94 447.897C1001.24 439.199 994.415 429.08 989.644 417.8C984.705 406.128 982.198 393.727 982.198 380.932C982.198 354.689 992.376 330.597 1010.69 313.968L1018.23 322.273C1010.43 329.362 1004.69 337.143 1000.23 347.581C995.762 358.075 993.405 369.597 993.405 380.914C993.405 392.193 995.612 403.117 999.972 413.405C1004.18 423.337 1010.21 432.278 1017.88 439.947C1025.55 447.617 1034.47 453.64 1044.42 457.83C1054.71 462.188 1065.64 464.395 1076.92 464.395C1088.2 464.395 1099.13 462.188 1109.42 457.83C1119.35 453.621 1128.3 447.598 1135.97 439.947C1143.64 432.278 1149.66 423.356 1153.87 413.405C1158.23 403.117 1160.44 392.193 1160.44 380.914C1160.44 369.691 1158.16 358.785 1153.65 348.479C1149.31 338.565 1143.1 329.624 1135.2 321.936C1127.32 314.267 1118.19 308.225 1108.05 303.998C1097.6 299.639 1088.24 297.806 1076.96 297.806V286.583C1089.74 286.583 1100.55 288.716 1112.38 293.635C1123.83 298.405 1134.13 305.214 1143.04 313.893C1151.98 322.609 1159.02 332.729 1163.94 343.971C1169.06 355.699 1171.68 368.119 1171.68 380.895C1171.68 393.671 1169.18 406.072 1164.24 417.763C1159.47 429.042 1152.64 439.162 1143.94 447.86C1135.24 456.558 1125.12 463.385 1113.84 468.155C1102.1 473.131 1089.7 475.637 1076.92 475.637Z" fill="#C4C4C4" stroke="white" stroke-width="15" stroke-miterlimit="10" stroke-linecap="round" stroke-linejoin="round"/>
<path d="M1030.22 333.365L1089.03 393.671" stroke="#88D9F3" stroke-width="7" stroke-miterlimit="10" stroke-linecap="round"/>
<path d="M1077.56 386.207C1080.13 386.207 1082.22 384.122 1082.22 381.55C1082.22 378.977 1080.13 376.892 1077.56 376.892C1074.98 376.892 1072.9 378.977 1072.9 381.55C1072.9 384.122 1074.98 386.207 1077.56 386.207Z" fill="#C4C4C4" stroke="white" stroke-width="15" stroke-miterlimit="10" stroke-linecap="round"/>
<path d="M1102.96 282.449L1103.81 276.445C1104.22 273.677 1107.01 271.918 1109.68 272.741L1115.56 274.518C1118.23 275.323 1119.58 278.334 1118.38 280.878L1115.54 286.602" stroke="white" stroke-width="15" stroke-miterlimit="10" stroke-linecap="round"/>
<path d="M1062.87 780.832V539.815H1281.08V780.832" stroke="#323846" stroke-width="6" stroke-miterlimit="10"/>
<path d="M1288.8 547.877H1055.14C1049.87 547.877 1045.58 543.593 1045.58 538.318V501.899C1045.58 496.624 1049.87 492.341 1055.14 492.341H1288.8C1294.08 492.341 1298.36 496.624 1298.36 501.899V538.318C1298.36 543.593 1294.08 547.877 1288.8 547.877Z" fill="white" stroke="#323846" stroke-width="6" stroke-miterlimit="10"/>
<path d="M1289.36 541.33H1054.58C1049.31 541.33 1045.02 537.046 1045.02 531.771V495.352C1045.02 490.077 1049.31 485.794 1054.58 485.794H1289.36C1294.64 485.794 1298.92 490.077 1298.92 495.352V531.771C1298.92 537.046 1294.64 541.33 1289.36 541.33Z" fill="#323846"/>
<path d="M1287.9 687.137V658.593C1287.9 648.866 1295.8 640.973 1305.53 640.973C1315.26 640.973 1323.15 648.866 1323.15 658.593V687.137" stroke="#323846" stroke-width="6" stroke-miterlimit="10"/>
<path d="M1270.49 781H1336.14C1343.79 781 1350 774.79 1350 767.139V675.708C1350 668.058 1343.79 661.848 1336.14 661.848H1270.49C1262.83 661.848 1256.62 668.058 1256.62 675.708V767.139C1256.62 774.809 1262.83 781 1270.49 781Z" fill="#3FB1B5"/>
<path d="M1349.98 683.078C1349.98 674.324 1342.87 667.216 1334.12 667.216H1282.97C1274.21 667.216 1267.1 674.324 1267.1 683.078V746.264" stroke="white" stroke-width="6" stroke-miterlimit="10"/>
<path d="M1336.34 781H1291.57C1284.03 781 1277.93 774.902 1277.93 767.364V685.94C1277.93 678.402 1284.03 672.304 1291.57 672.304H1336.34C1343.88 672.304 1349.98 678.402 1349.98 685.94V767.364C1349.98 774.902 1343.88 781 1336.34 781Z" fill="white" stroke="#323846" stroke-width="6" stroke-miterlimit="10"/>
<path d="M1297.76 693.553V665.009C1297.76 655.282 1305.66 647.389 1315.39 647.389C1325.12 647.389 1333.01 655.282 1333.01 665.009V693.553" stroke="#323846" stroke-width="6" stroke-miterlimit="10"/>
<path d="M1336.19 770.282H1292.15C1288.58 770.282 1285.68 767.383 1285.68 763.81V730.159C1285.68 726.586 1288.58 723.687 1292.15 723.687H1336.19C1339.77 723.687 1342.67 726.586 1342.67 730.159V763.81C1342.68 767.383 1339.78 770.282 1336.19 770.282Z" fill="#323846"/>
<path d="M1269.91 746.264H1264.37" stroke="#323846" stroke-width="6" stroke-miterlimit="10"/>
<path d="M1257.48 687.736C1257.48 715.008 1227.66 755.467 1237.93 768.43C1247.74 780.794 1257.48 768.411 1257.48 768.411V687.736Z" fill="white" stroke="#3FB1B5" stroke-width="6" stroke-miterlimit="10"/>
<path d="M1289.2 736.182H1338.68" stroke="white" stroke-width="5" stroke-miterlimit="10" stroke-linecap="round"/>
<path d="M1301.32 692.992H1294.21V696.396H1301.32V692.992Z" stroke="#323846" stroke-width="6" stroke-miterlimit="10"/>
<path d="M1336.44 692.992H1329.33V696.396H1336.44V692.992Z" stroke="#323846" stroke-width="6" stroke-miterlimit="10"/>
<path d="M1289.2 738.464V736.182" stroke="white" stroke-width="5" stroke-miterlimit="10" stroke-linecap="round"/>
<path d="M1293.69 738.464V736.182" stroke="white" stroke-width="5" stroke-miterlimit="10" stroke-linecap="round"/>
<path d="M1298.19 738.464V736.182" stroke="white" stroke-width="5" stroke-miterlimit="10" stroke-linecap="round"/>
<path d="M1302.68 738.464V736.182" stroke="white" stroke-width="5" stroke-miterlimit="10" stroke-linecap="round"/>
<path d="M1307.19 738.464V736.182" stroke="white" stroke-width="5" stroke-miterlimit="10" stroke-linecap="round"/>
<path d="M1311.68 738.464V736.182" stroke="white" stroke-width="5" stroke-miterlimit="10" stroke-linecap="round"/>
<path d="M1316.4 738.464V736.182" stroke="white" stroke-width="5" stroke-miterlimit="10" stroke-linecap="round"/>
<path d="M1320.91 738.464V736.182" stroke="white" stroke-width="5" stroke-miterlimit="10" stroke-linecap="round"/>
<path d="M1325.19 738.464V736.182" stroke="white" stroke-width="5" stroke-miterlimit="10" stroke-linecap="round"/>
<path d="M1329.68 738.464V736.182" stroke="white" stroke-width="5" stroke-miterlimit="10" stroke-linecap="round"/>
<path d="M1334.19 738.464V736.182" stroke="white" stroke-width="5" stroke-miterlimit="10" stroke-linecap="round"/>
<path d="M1338.68 738.464V736.182" stroke="white" stroke-width="5" stroke-miterlimit="10" stroke-linecap="round"/>
<path d="M1294.42 746.264C1293.2 746.264 1292.28 745.198 1292.43 744.001L1293.42 736.164H1295.41L1296.4 744.001C1296.57 745.198 1295.63 746.264 1294.42 746.264Z" fill="white" stroke="#3FB1B5" stroke-width="6" stroke-miterlimit="10"/>
<path d="M1220.79 485.775H1137.07V530.051H1220.79V485.775Z" fill="white"/>
<path d="M1210.99 520.604C1211.95 520.604 1212.73 519.826 1212.73 518.865C1212.73 517.904 1211.95 517.125 1210.99 517.125C1210.03 517.125 1209.25 517.904 1209.25 518.865C1209.25 519.826 1210.03 520.604 1210.99 520.604Z" fill="#88D9F3" stroke="#88D9F3" stroke-width="5" stroke-miterlimit="10"/>
<path d="M1204.56 520.604C1205.52 520.604 1206.3 519.826 1206.3 518.865C1206.3 517.904 1205.52 517.125 1204.56 517.125C1203.59 517.125 1202.82 517.904 1202.82 518.865C1202.82 519.826 1203.59 520.604 1204.56 520.604Z" fill="white" stroke="#88D9F3" stroke-width="5" stroke-miterlimit="10"/>
<path d="M1198.14 520.604C1199.1 520.604 1199.88 519.826 1199.88 518.865C1199.88 517.904 1199.1 517.125 1198.14 517.125C1197.18 517.125 1196.4 517.904 1196.4 518.865C1196.4 519.826 1197.18 520.604 1198.14 520.604Z" fill="white" stroke="#88D9F3" stroke-width="5" stroke-miterlimit="10"/>
<path d="M1210.99 514.114C1211.95 514.114 1212.73 513.335 1212.73 512.374C1212.73 511.413 1211.95 510.635 1210.99 510.635C1210.03 510.635 1209.25 511.413 1209.25 512.374C1209.25 513.335 1210.03 514.114 1210.99 514.114Z" fill="#88D9F3" stroke="#88D9F3" stroke-width="5" stroke-miterlimit="10"/>
<path d="M1204.56 514.114C1205.52 514.114 1206.3 513.335 1206.3 512.374C1206.3 511.413 1205.52 510.635 1204.56 510.635C1203.59 510.635 1202.82 511.413 1202.82 512.374C1202.82 513.335 1203.59 514.114 1204.56 514.114Z" fill="white" stroke="#88D9F3" stroke-width="5" stroke-miterlimit="10"/>
<path d="M1198.14 514.114C1199.1 514.114 1199.88 513.335 1199.88 512.374C1199.88 511.413 1199.1 510.635 1198.14 510.635C1197.18 510.635 1196.4 511.413 1196.4 512.374C1196.4 513.335 1197.18 514.114 1198.14 514.114Z" fill="white" stroke="#88D9F3" stroke-width="5" stroke-miterlimit="10"/>
<path d="M1210.99 501.17C1211.95 501.17 1212.73 500.391 1212.73 499.43C1212.73 498.469 1211.95 497.69 1210.99 497.69C1210.03 497.69 1209.25 498.469 1209.25 499.43C1209.25 500.391 1210.03 501.17 1210.99 501.17Z" fill="white" stroke="#88D9F3" stroke-width="5" stroke-miterlimit="10"/>
<path d="M1204.56 501.17C1205.52 501.17 1206.3 500.391 1206.3 499.43C1206.3 498.469 1205.52 497.69 1204.56 497.69C1203.59 497.69 1202.82 498.469 1202.82 499.43C1202.82 500.391 1203.59 501.17 1204.56 501.17Z" fill="#88D9F3" stroke="#88D9F3" stroke-width="5" stroke-miterlimit="10"/>
<path d="M1198.14 501.17C1199.1 501.17 1199.88 500.391 1199.88 499.43C1199.88 498.469 1199.1 497.69 1198.14 497.69C1197.18 497.69 1196.4 498.469 1196.4 499.43C1196.4 500.391 1197.18 501.17 1198.14 501.17Z" fill="white" stroke="#88D9F3" stroke-width="5" stroke-miterlimit="10"/>
<path d="M1210.99 507.642C1211.95 507.642 1212.73 506.863 1212.73 505.902C1212.73 504.941 1211.95 504.162 1210.99 504.162C1210.03 504.162 1209.25 504.941 1209.25 505.902C1209.25 506.863 1210.03 507.642 1210.99 507.642Z" fill="white" stroke="#88D9F3" stroke-width="5" stroke-miterlimit="10"/>
<path d="M1204.56 507.642C1205.52 507.642 1206.3 506.863 1206.3 505.902C1206.3 504.941 1205.52 504.162 1204.56 504.162C1203.59 504.162 1202.82 504.941 1202.82 505.902C1202.82 506.863 1203.59 507.642 1204.56 507.642Z" fill="white" stroke="#88D9F3" stroke-width="5" stroke-miterlimit="10"/>
<path d="M1198.14 507.642C1199.1 507.642 1199.88 506.863 1199.88 505.902C1199.88 504.941 1199.1 504.162 1198.14 504.162C1197.18 504.162 1196.4 504.941 1196.4 505.902C1196.4 506.863 1197.18 507.642 1198.14 507.642Z" fill="#88D9F3" stroke="#88D9F3" stroke-width="5" stroke-miterlimit="10"/>
<path d="M1160.29 507.642C1161.25 507.642 1162.03 506.863 1162.03 505.902C1162.03 504.941 1161.25 504.162 1160.29 504.162C1159.33 504.162 1158.55 504.941 1158.55 505.902C1158.55 506.863 1159.33 507.642 1160.29 507.642Z" fill="#88D9F3" stroke="#88D9F3" stroke-width="5" stroke-miterlimit="10"/>
<path d="M1153.85 507.642C1154.81 507.642 1155.59 506.863 1155.59 505.902C1155.59 504.941 1154.81 504.162 1153.85 504.162C1152.89 504.162 1152.11 504.941 1152.11 505.902C1152.11 506.863 1152.89 507.642 1153.85 507.642Z" fill="white" stroke="#88D9F3" stroke-width="5" stroke-miterlimit="10"/>
<path d="M1147.44 494.698C1148.4 494.698 1149.18 493.919 1149.18 492.958C1149.18 491.997 1148.4 491.219 1147.44 491.219C1146.48 491.219 1145.7 491.997 1145.7 492.958C1145.7 493.919 1146.48 494.698 1147.44 494.698Z" fill="white" stroke="#88D9F3" stroke-width="5" stroke-miterlimit="10"/>
<path d="M1160.29 501.17C1161.25 501.17 1162.03 500.391 1162.03 499.43C1162.03 498.469 1161.25 497.69 1160.29 497.69C1159.33 497.69 1158.55 498.469 1158.55 499.43C1158.55 500.391 1159.33 501.17 1160.29 501.17Z" fill="white" stroke="#88D9F3" stroke-width="5" stroke-miterlimit="10"/>
<path d="M1153.85 501.17C1154.81 501.17 1155.59 500.391 1155.59 499.43C1155.59 498.469 1154.81 497.69 1153.85 497.69C1152.89 497.69 1152.11 498.469 1152.11 499.43C1152.11 500.391 1152.89 501.17 1153.85 501.17Z" fill="white" stroke="#88D9F3" stroke-width="5" stroke-miterlimit="10"/>
<path d="M1147.44 501.17C1148.4 501.17 1149.18 500.391 1149.18 499.43C1149.18 498.469 1148.4 497.69 1147.44 497.69C1146.48 497.69 1145.7 498.469 1145.7 499.43C1145.7 500.391 1146.48 501.17 1147.44 501.17Z" fill="#88D9F3" stroke="#88D9F3" stroke-width="5" stroke-miterlimit="10"/>
<path d="M1184.61 514.114C1185.57 514.114 1186.35 513.335 1186.35 512.374C1186.35 511.413 1185.57 510.635 1184.61 510.635C1183.65 510.635 1182.87 511.413 1182.87 512.374C1182.87 513.335 1183.65 514.114 1184.61 514.114Z" fill="white" stroke="#88D9F3" stroke-width="5" stroke-miterlimit="10"/>
<path d="M1178.18 514.114C1179.14 514.114 1179.92 513.335 1179.92 512.374C1179.92 511.413 1179.14 510.635 1178.18 510.635C1177.21 510.635 1176.44 511.413 1176.44 512.374C1176.44 513.335 1177.21 514.114 1178.18 514.114Z" fill="white" stroke="#88D9F3" stroke-width="5" stroke-miterlimit="10"/>
<path d="M1171.76 514.114C1172.72 514.114 1173.5 513.335 1173.5 512.374C1173.5 511.413 1172.72 510.635 1171.76 510.635C1170.8 510.635 1170.02 511.413 1170.02 512.374C1170.02 513.335 1170.8 514.114 1171.76 514.114Z" fill="#88D9F3" stroke="#88D9F3" stroke-width="5" stroke-miterlimit="10"/>
<path d="M1184.61 501.17C1185.57 501.17 1186.35 500.391 1186.35 499.43C1186.35 498.469 1185.57 497.69 1184.61 497.69C1183.65 497.69 1182.87 498.469 1182.87 499.43C1182.87 500.391 1183.65 501.17 1184.61 501.17Z" fill="#88D9F3" stroke="#88D9F3" stroke-width="5" stroke-miterlimit="10"/>
<path d="M1178.18 501.17C1179.14 501.17 1179.92 500.391 1179.92 499.43C1179.92 498.469 1179.14 497.69 1178.18 497.69C1177.21 497.69 1176.44 498.469 1176.44 499.43C1176.44 500.391 1177.21 501.17 1178.18 501.17Z" fill="white" stroke="#88D9F3" stroke-width="5" stroke-miterlimit="10"/>
<path d="M1171.76 501.17C1172.72 501.17 1173.5 500.391 1173.5 499.43C1173.5 498.469 1172.72 497.69 1171.76 497.69C1170.8 497.69 1170.02 498.469 1170.02 499.43C1170.02 500.391 1170.8 501.17 1171.76 501.17Z" fill="white" stroke="#88D9F3" stroke-width="5" stroke-miterlimit="10"/>
<path d="M1184.61 507.642C1185.57 507.642 1186.35 506.863 1186.35 505.902C1186.35 504.941 1185.57 504.162 1184.61 504.162C1183.65 504.162 1182.87 504.941 1182.87 505.902C1182.87 506.863 1183.65 507.642 1184.61 507.642Z" fill="white" stroke="#88D9F3" stroke-width="5" stroke-miterlimit="10"/>
<path d="M1178.18 507.642C1179.14 507.642 1179.92 506.863 1179.92 505.902C1179.92 504.941 1179.14 504.162 1178.18 504.162C1177.21 504.162 1176.44 504.941 1176.44 505.902C1176.44 506.863 1177.21 507.642 1178.18 507.642Z" fill="#88D9F3" stroke="#88D9F3" stroke-width="5" stroke-miterlimit="10"/>
<path d="M1171.76 507.642C1172.72 507.642 1173.5 506.863 1173.5 505.902C1173.5 504.941 1172.72 504.162 1171.76 504.162C1170.8 504.162 1170.02 504.941 1170.02 505.902C1170.02 506.863 1170.8 507.642 1171.76 507.642Z" fill="white" stroke="#88D9F3" stroke-width="5" stroke-miterlimit="10"/>
<path d="M1277.22 495.839H1190.88L1190.95 485.775H1138.94L1123.81 441.444L1107.6 471.279L1153.35 510.298L1131.48 539.927L1077.45 505.304C1067.66 498.925 1061.77 488.057 1061.77 476.385C1061.77 470.549 1063.25 464.788 1066.09 459.681L1091.31 414.078C1101.9 394.943 1122.03 383.083 1143.88 383.083H1224.87C1238.34 383.083 1250.97 389.63 1258.74 400.629L1298.01 455.286C1310.22 472.214 1298.1 495.839 1277.22 495.839Z" fill="white" stroke="#88D9F3" stroke-width="6" stroke-miterlimit="10"/>
<path d="M1149.21 529.714C1142.81 538.318 1134.94 543.256 1131.59 540.769C1128.24 538.281 1130.71 529.302 1137.09 520.698C1143.49 512.093 1150.62 507.529 1153.97 510.017C1157.31 512.505 1155.59 521.128 1149.21 529.714Z" fill="#88D9F3"/>
<path d="M1150.86 383.158L1176.77 419.054L1200.68 383.158H1150.86Z" stroke="#88D9F3" stroke-width="6" stroke-miterlimit="10"/>
<path d="M1177.05 432.129C1178.55 432.129 1179.77 430.914 1179.77 429.416C1179.77 427.918 1178.55 426.704 1177.05 426.704C1175.55 426.704 1174.34 427.918 1174.34 429.416C1174.34 430.914 1175.55 432.129 1177.05 432.129Z" stroke="#88D9F3" stroke-width="6" stroke-miterlimit="10"/>
<path d="M1177.05 449.337C1178.55 449.337 1179.77 448.123 1179.77 446.625C1179.77 445.127 1178.55 443.913 1177.05 443.913C1175.55 443.913 1174.34 445.127 1174.34 446.625C1174.34 448.123 1175.55 449.337 1177.05 449.337Z" stroke="#88D9F3" stroke-width="6" stroke-miterlimit="10"/>
<path d="M1231.25 439.162L1243.62 458.335H1191.61V496.493" stroke="#88D9F3" stroke-width="6" stroke-miterlimit="10"/>
<path d="M1243.62 458.335H1257.26" stroke="#88D9F3" stroke-width="6" stroke-miterlimit="10"/>
<path d="M1191.61 496.493C1195.78 496.493 1199.17 487.809 1199.17 477.096C1199.17 466.383 1195.78 457.699 1191.61 457.699C1187.43 457.699 1184.05 466.383 1184.05 477.096C1184.05 487.809 1187.43 496.493 1191.61 496.493Z" fill="#88D9F3"/>
<path d="M1199.09 458.391C1203.26 458.391 1206.65 466.771 1206.65 477.096C1206.65 487.421 1203.26 495.801 1199.09 495.801" stroke="#88D9F3" stroke-width="6" stroke-miterlimit="10"/>
<path d="M1125.77 536.298C1122.42 533.81 1124.89 524.832 1131.27 516.227C1137.67 507.623 1144.42 503.059 1147.77 505.547" stroke="#88D9F3" stroke-width="6" stroke-miterlimit="10"/>
<path d="M1151.05 367.652C1151.18 349.208 1163.43 344.158 1183.56 345.767C1205.27 347.506 1196.38 377.36 1208.43 378.351C1213.48 378.763 1219.24 373.039 1226.91 368.325C1233.24 364.06 1240.85 361.573 1249.06 361.573C1270.97 361.573 1288.75 379.342 1288.75 401.246C1288.75 411.328 1284.05 421.074 1277.86 428.07C1277.86 428.07 1254.45 395.205 1245.38 392.118C1227.53 386.058 1221.86 401.733 1209.48 404.164C1207.85 404.482 1206.11 404.576 1204.2 404.351C1186.58 402.331 1189.94 373.282 1189.94 373.282C1185.38 371.411 1184.39 366.679 1184.22 363.817C1184.31 362.433 1184.26 361.516 1184.26 361.516C1184.26 361.516 1184.14 362.452 1184.22 363.817C1183.84 369.204 1180.55 382.092 1162.2 377.472V383.738C1162.2 421.691 1162.82 429.061 1155.13 438.601C1153.98 440.022 1146.35 451.489 1160.03 457.68C1177.65 465.648 1165.21 486.617 1165.21 486.617H1127.92C1127.92 486.617 1105.79 482.689 1103.86 462.599C1101.11 433.887 1137.13 426.199 1141.82 425.32C1132.69 423.917 1123.77 414.92 1123.77 404.015C1123.77 394.344 1131.2 386.17 1138.83 383.476C1138.85 383.476 1138.85 383.476 1138.87 383.458C1139.09 383.383 1139.32 383.308 1139.54 383.233C1145.51 381.176 1149.91 376.649 1150.88 371.168L1151.05 367.652Z" fill="#323846"/>
<path d="M1184.31 367.857C1184.29 367.857 1184.29 367.857 1184.31 367.857C1184.05 367.857 1183.84 367.633 1183.84 367.39L1183.99 357.831C1183.99 357.57 1184.2 357.364 1184.46 357.364C1184.72 357.364 1184.93 357.588 1184.93 357.831L1184.78 367.39C1184.76 367.652 1184.56 367.857 1184.31 367.857Z" fill="#A0505A"/>
<path d="M1163.02 378.744C1162.95 378.744 1162.87 378.725 1162.8 378.688C1158.27 376.312 1157.31 373.88 1157.26 373.787C1157.17 373.544 1157.3 373.282 1157.54 373.188C1157.78 373.095 1158.04 373.226 1158.14 373.45C1158.16 373.488 1159.07 375.676 1163.23 377.865C1163.45 377.977 1163.55 378.276 1163.43 378.501C1163.36 378.65 1163.19 378.744 1163.02 378.744Z" fill="#A0505A"/>
<path d="M1225.86 362.489C1228.96 362.489 1231.48 359.977 1231.48 356.877C1231.48 353.778 1228.96 351.266 1225.86 351.266C1222.77 351.266 1220.25 353.778 1220.25 356.877C1220.25 359.977 1222.77 362.489 1225.86 362.489Z" fill="#323846"/>
<path d="M1159.8 451.227C1162.29 451.227 1164.31 449.208 1164.31 446.719C1164.31 444.229 1162.29 442.211 1159.8 442.211C1157.31 442.211 1155.29 444.229 1155.29 446.719C1155.29 449.208 1157.31 451.227 1159.8 451.227Z" fill="#323846"/>
<path d="M1188.2 514.564L1188.19 517.968C1188.19 518.267 1188.11 518.567 1188 518.828L1179.8 537.085C1178.59 539.722 1175.95 541.406 1173.05 541.406H1155.52C1151.14 541.406 1146.89 539.928 1143.45 537.234L1142.84 536.748L1132.4 528.536C1133.56 526.03 1135.15 523.355 1137.11 520.718C1140.85 515.667 1145.14 511.889 1148.69 510.112H1173.85C1175.86 514.582 1169.35 518.174 1169.35 518.174H1180.72L1184.84 513.703C1185.9 512.543 1187.83 513.048 1188.2 514.564Z" fill="#A0505A"/>
<path d="M1149.03 529.34C1147.36 532.052 1144.91 534.877 1142.83 536.747L1142.82 536.728L1132.38 528.517C1133.54 526.01 1135.13 523.335 1137.09 520.698C1140.83 515.648 1145.12 511.869 1148.67 510.092H1154.08C1154.56 514.338 1153.85 521.484 1149.03 529.34Z" fill="#A0505A"/>
<path d="M1166.97 471.634C1166.97 471.634 1176.06 447.373 1179.58 447.86C1183.08 448.327 1171.74 469.838 1171.74 469.838L1166.97 471.634Z" fill="#88D9F3"/>
<path d="M1199.17 477.097C1199.17 487.478 1195.99 495.933 1192 496.457C1191.87 496.476 1191.74 496.476 1191.61 496.476H1154.56C1153.44 496.476 1152.54 495.578 1152.54 494.455V482.634C1152.54 479.286 1154.6 476.293 1157.73 475.114L1173.24 469.241C1174.64 468.717 1176.14 468.437 1177.63 468.437H1198.36C1198.87 471.055 1199.17 473.992 1199.17 477.097Z" fill="#A0505A"/>
<path d="M1199.17 477.096C1199.17 487.477 1195.99 495.932 1192 496.456C1191.87 496.475 1191.74 496.475 1191.61 496.475C1187.44 496.475 1184.05 487.795 1184.05 477.077C1184.05 474.215 1184.48 470.961 1184.93 468.417H1198.27C1198.74 470.979 1199.17 474.234 1199.17 477.096Z" fill="#A0505A"/>
<path d="M1196.06 377.453C1196.06 378.538 1195.69 379.567 1195.07 380.371C1194.43 381.194 1193.55 381.793 1192.49 382.073L1189.91 382.747V385.627C1189.91 392.586 1184.27 398.216 1177.31 398.216H1174.83C1167.89 398.216 1162.27 392.604 1162.24 385.684V377.453C1180.59 382.092 1183.88 369.186 1184.26 363.798C1184.41 366.529 1185.32 370.944 1189.36 372.983L1190.07 372.796C1193.11 372.047 1196.06 374.329 1196.06 377.453Z" fill="#A0505A"/>
<path d="M1040.78 666.674C1043 671.911 1042.35 682.685 1031.14 682.536C1017.24 682.349 1017.6 644.901 1017.6 644.901C1017.6 644.901 1031.8 645.555 1040.78 666.674Z" fill="#3FB1B5"/>
<path d="M911.309 654.01C907.829 661.38 912.506 667.31 916.435 665.271C923.302 661.698 926.258 652.514 926.258 652.514C926.258 652.514 914.433 647.426 911.309 654.01Z" fill="#3FB1B5"/>
<path d="M1040.59 666.674C1033.14 651.766 1024.74 644.676 1011.29 644.676C988.634 644.676 974.097 668.918 971.328 700.268C970.991 696.378 966.969 692.393 966.669 688.353C962.628 634.669 992.058 613.495 1014.13 613.495C1032.21 613.476 1036.72 639.439 1040.59 666.674Z" fill="white" stroke="#3FB1B5" stroke-width="6" stroke-miterlimit="10"/>
<path d="M966.688 701.016C962.647 647.332 993.442 626.158 1013.78 626.158C1025.06 626.158 1032.13 632.817 1037.58 647.968" stroke="#3FB1B5" stroke-width="6" stroke-miterlimit="10"/>
<path d="M881.917 590.843C875.874 596.828 864.948 621.37 878.474 626.233C892.001 631.115 907.848 583.061 907.848 583.061C907.848 583.061 896.379 576.496 881.917 590.843Z" fill="#323846" stroke="#323846" stroke-width="6" stroke-miterlimit="10"/>
<path d="M993.442 702.344L988.615 728.513C986.183 741.644 974.733 751.184 961.374 751.184C948.016 751.184 936.566 741.644 934.134 728.513L929.307 702.344C929.307 701.035 929.606 699.782 930.13 698.66C934.003 702.55 946.594 705.393 961.505 705.393C976.211 705.393 988.634 702.625 992.712 698.847C993.18 699.913 993.442 701.11 993.442 702.344Z" fill="#C4C4C4"/>
<path d="M990.28 696.134C990.28 699.838 977.389 702.831 961.487 702.831C945.584 702.831 932.693 699.838 932.693 696.134C932.693 695.835 932.768 695.554 932.937 695.274C934.77 691.982 946.856 689.457 961.487 689.457C976.566 689.457 988.933 692.15 990.168 695.573C990.242 695.76 990.28 695.947 990.28 696.134Z" fill="#323846"/>
<path d="M971.814 657.097C971.814 672.584 969.681 687.212 965.883 700.081H954.957C954.92 635.043 931.197 582.351 901.954 582.351C894.358 582.351 887.137 585.904 880.607 592.302C899.84 569.799 907.829 563.627 918.811 563.627C945.041 563.627 971.814 605.47 971.814 657.097Z" fill="white" stroke="#323846" stroke-width="6" stroke-miterlimit="10"/>
<path d="M892.843 578.591C899.092 574.045 903.114 571.932 910.28 571.932C939.541 571.932 969.157 620.752 961.356 700.062" stroke="#323846" stroke-width="6" stroke-miterlimit="10"/>
<path d="M961.431 700.063C961.431 700.063 963.04 638.99 929.756 638.784C920.944 638.728 912.693 652.701 912.693 652.701C912.693 652.701 951.665 642.525 953.592 700.063H961.431Z" fill="white" stroke="#3FB1B5" stroke-width="6" stroke-miterlimit="10"/>
<path d="M957.352 700.249C957.82 683.041 953.479 641.515 919.84 643.741" stroke="#3FB1B5" stroke-width="6" stroke-miterlimit="10"/>
<path d="M912.544 594.771C914.249 594.771 915.631 593.389 915.631 591.684C915.631 589.98 914.249 588.598 912.544 588.598C910.839 588.598 909.457 589.98 909.457 591.684C909.457 593.389 910.839 594.771 912.544 594.771Z" fill="white" stroke="#323846" stroke-width="6" stroke-miterlimit="10"/>
<path d="M985.304 683.041C987.794 683.041 989.813 681.022 989.813 678.533C989.813 676.043 987.794 674.025 985.304 674.025C982.813 674.025 980.795 676.043 980.795 678.533C980.795 681.022 982.813 683.041 985.304 683.041Z" fill="white" stroke="#323846" stroke-width="6" stroke-miterlimit="10"/>
<path d="M977.82 596.08C982.521 596.08 986.332 592.27 986.332 587.569C986.332 582.869 982.521 579.058 977.82 579.058C973.118 579.058 969.307 582.869 969.307 587.569C969.307 592.27 973.118 596.08 977.82 596.08Z" fill="#C4C4C4"/>
<path d="M1000.18 780.832L992.637 743.29C992.001 740.092 987.736 739.343 986.052 742.149C975.65 759.451 947.399 759.564 936.828 742.318L936.641 742C934.939 739.231 930.71 739.979 930.074 743.159L922.516 780.813" stroke="#323846" stroke-width="6" stroke-miterlimit="10"/>
<path d="M961.356 755.205V781" stroke="#323846" stroke-width="6" stroke-miterlimit="10"/>
<path d="M905.397 780.832H1156.17" stroke="#323846" stroke-width="6" stroke-miterlimit="10"/>
<defs>
<filter id="filter0_i" x="-140" y="-181" width="1052" height="1326" filterUnits="userSpaceOnUse" color-interpolation-filters="sRGB">
<feFlood flood-opacity="0" result="BackgroundImageFix"/>
<feBlend mode="normal" in="SourceGraphic" in2="BackgroundImageFix" result="shape"/>
<feColorMatrix in="SourceAlpha" type="matrix" values="0 0 0 0 0 0 0 0 0 0 0 0 0 0 0 0 0 0 127 0" result="hardAlpha"/>
<feOffset dx="4"/>
<feGaussianBlur stdDeviation="5"/>
<feComposite in2="hardAlpha" operator="arithmetic" k2="-1" k3="1"/>
<feColorMatrix type="matrix" values="0 0 0 0 0.196078 0 0 0 0 0.219608 0 0 0 0 0.27451 0 0 0 0.25 0"/>
<feBlend mode="multiply" in2="shape" result="effect1_innerShadow"/>
</filter>
<radialGradient id="paint0_angular" cx="0" cy="0" r="1" gradientUnits="userSpaceOnUse" gradientTransform="translate(1179 512) rotate(-121.717) scale(600.125 823.38)">
<stop stop-color="#323846"/>
<stop offset="1" stop-color="#88D9F3"/>
</radialGradient>
<clipPath id="clip0">
<rect width="1440" height="1024" fill="white"/>
</clipPath>
</defs>
</svg>
